<svg width="160" height="64" viewBox="0 0 160 64" fill="none" xmlns="http://www.w3.org/2000/svg">
<g clip-path="url(#clip0_41_472)">
<path d="M45.18 27V41H42.04V39.3C41.08 40.5933 39.6667 41.24 37.8 41.24C36.1467 41.24 34.8533 40.72 33.92 39.68C33 38.6267 32.54 37.1333 32.54 35.2V27H35.78V35.1C35.78 36.22 36.04 37.0667 36.56 37.64C37.0933 38.2 37.8133 38.48 38.72 38.48C39.6933 38.48 40.4733 38.18 41.06 37.58C41.6467 36.9667 41.94 36.0667 41.94 34.88V27H45.18ZM55.9198 26.76C57.5865 26.76 58.8865 27.2867 59.8198 28.34C60.7532 29.38 61.2198 30.8667 61.2198 32.8V41H57.9798V32.9C57.9798 31.78 57.7132 30.94 57.1798 30.38C56.6598 29.8067 55.9332 29.52 54.9998 29.52C54.0132 29.52 53.2198 29.8267 52.6198 30.44C52.0332 31.04 51.7398 31.9333 51.7398 33.12V41H48.4998V27H51.6398V28.7C52.1198 28.06 52.7198 27.58 53.4398 27.26C54.1598 26.9267 54.9865 26.76 55.9198 26.76ZM69.2178 29.6V38.4H71.6378V41H63.5378V38.4H65.9778V29.6H63.5378V27H71.6378V29.6H69.2178ZM84.2858 30.92C83.0858 30.2267 81.7991 29.78 80.4258 29.58V41H77.1858V29.58C75.8124 29.78 74.5191 30.2267 73.3058 30.92L72.2058 28.5C73.1658 27.9267 74.2058 27.4933 75.3258 27.2C76.4458 26.9067 77.5991 26.76 78.7858 26.76C79.9858 26.76 81.1458 26.9067 82.2658 27.2C83.3991 27.4933 84.4391 27.9267 85.3858 28.5L84.2858 30.92ZM98.0844 39.8C97.4177 40.2533 96.5777 40.6067 95.5644 40.86C94.5644 41.1133 93.4977 41.24 92.3644 41.24C90.951 41.24 89.751 41.0667 88.7644 40.72C87.7777 40.36 87.031 39.8667 86.5244 39.24C86.0177 38.6 85.7644 37.8733 85.7644 37.06C85.7644 36.3133 85.971 35.6533 86.3844 35.08C86.7977 34.5067 87.3644 34.08 88.0844 33.8C87.5377 33.5067 87.111 33.1067 86.8044 32.6C86.511 32.0933 86.3644 31.5267 86.3644 30.9C86.3644 30.14 86.5977 29.4467 87.0644 28.82C87.531 28.1933 88.2377 27.6933 89.1844 27.32C90.131 26.9467 91.291 26.76 92.6644 26.76C93.571 26.76 94.4577 26.8533 95.3244 27.04C96.191 27.2133 96.9444 27.4533 97.5844 27.76L96.6844 30.24C95.4577 29.6667 94.1577 29.38 92.7844 29.38C91.7444 29.38 90.9577 29.54 90.4244 29.86C89.9044 30.1667 89.6444 30.5867 89.6444 31.12C89.6444 31.6133 89.8177 31.9933 90.1644 32.26C90.5244 32.5133 91.0644 32.64 91.7844 32.64H95.6044V35.2H91.5844C90.771 35.2 90.1444 35.34 89.7044 35.62C89.2644 35.9 89.0444 36.3067 89.0444 36.84C89.0444 37.4 89.3244 37.84 89.8844 38.16C90.4577 38.4667 91.331 38.62 92.5044 38.62C93.331 38.62 94.1577 38.5133 94.9844 38.3C95.811 38.0733 96.511 37.76 97.0844 37.36L98.0844 39.8ZM104.584 41.24C103.478 41.24 102.404 41.0933 101.364 40.8C100.338 40.4933 99.5109 40.1 98.8842 39.62L99.9842 37.18C100.584 37.62 101.298 37.9733 102.124 38.24C102.951 38.5067 103.778 38.64 104.604 38.64C105.524 38.64 106.204 38.5067 106.644 38.24C107.084 37.96 107.304 37.5933 107.304 37.14C107.304 36.8067 107.171 36.5333 106.904 36.32C106.651 36.0933 106.318 35.9133 105.904 35.78C105.504 35.6467 104.958 35.5 104.264 35.34C103.198 35.0867 102.324 34.8333 101.644 34.58C100.964 34.3267 100.378 33.92 99.8842 33.36C99.4042 32.8 99.1642 32.0533 99.1642 31.12C99.1642 30.3067 99.3842 29.5733 99.8242 28.92C100.264 28.2533 100.924 27.7267 101.804 27.34C102.698 26.9533 103.784 26.76 105.064 26.76C105.958 26.76 106.831 26.8667 107.684 27.08C108.538 27.2933 109.284 27.6 109.924 28L108.924 30.46C107.631 29.7267 106.338 29.36 105.044 29.36C104.138 29.36 103.464 29.5067 103.024 29.8C102.598 30.0933 102.384 30.48 102.384 30.96C102.384 31.44 102.631 31.8 103.124 32.04C103.631 32.2667 104.398 32.4933 105.424 32.72C106.491 32.9733 107.364 33.2267 108.044 33.48C108.724 33.7333 109.304 34.1333 109.784 34.68C110.278 35.2267 110.524 35.9667 110.524 36.9C110.524 37.7 110.298 38.4333 109.844 39.1C109.404 39.7533 108.738 40.2733 107.844 40.66C106.951 41.0467 105.864 41.24 104.584 41.24Z" fill="#274690"/>
<path d="M127.326 30.038C127.016 30.038 126.706 30.1345 126.462 30.2954L124.572 28.4131C124.735 28.1718 124.832 27.8823 124.832 27.5605C124.832 26.7079 124.132 26 123.252 26C122.372 26 121.671 26.6918 121.671 27.5605C121.671 27.8662 121.769 28.1718 121.932 28.4131L120.025 30.2793C119.78 30.1184 119.487 30.0219 119.161 30.0219C118.297 30.0219 117.58 30.7137 117.58 31.5824C117.58 32.4511 118.281 33.1429 119.161 33.1429C120.041 33.1429 120.742 32.4511 120.742 31.5824C120.742 31.2767 120.644 30.9711 120.481 30.7298L122.372 28.8636C122.616 29.0245 122.909 29.121 123.235 29.121C123.561 29.121 123.855 29.0245 124.099 28.8636L125.989 30.7298C125.826 30.9711 125.729 31.2607 125.729 31.5824C125.729 32.4351 126.429 33.1429 127.309 33.1429C128.189 33.1429 128.89 32.4511 128.89 31.5824C128.89 30.7137 128.189 30.038 127.326 30.038Z" fill="#274690"/>
<path d="M131.4 34.0599C130.536 34.0599 129.819 34.7517 129.819 35.6204C129.819 35.9261 129.917 36.2317 130.08 36.4731L128.173 38.3231C127.929 38.1623 127.635 38.0657 127.309 38.0657C126.983 38.0657 126.69 38.1623 126.446 38.3231L124.571 36.457C124.734 36.2157 124.832 35.9261 124.832 35.6043C124.832 34.7517 124.131 34.0438 123.251 34.0438C122.371 34.0438 121.671 34.7356 121.671 35.6043C121.671 36.4731 122.371 37.1648 123.251 37.1648C123.561 37.1648 123.871 37.0683 124.115 36.9074L126.006 38.7736C125.843 39.0149 125.745 39.3045 125.745 39.6262C125.745 40.4789 126.446 41.1867 127.326 41.1867C128.206 41.1867 128.906 40.495 128.906 39.6262C128.906 39.3206 128.809 39.0149 128.646 38.7736L130.536 36.9074C130.781 37.0683 131.074 37.1648 131.4 37.1648C132.264 37.1648 132.981 36.4731 132.981 35.6043C132.964 34.7517 132.264 34.0599 131.4 34.0599Z" fill="#274690"/>
<path d="M123.252 38.0818C122.942 38.0818 122.632 38.1783 122.388 38.3392L120.497 36.457C120.66 36.2157 120.758 35.9261 120.758 35.6043C120.758 35.2826 120.66 34.993 120.497 34.7517L122.388 32.8855C122.632 33.0464 122.926 33.1429 123.252 33.1429C124.115 33.1429 124.832 32.4511 124.832 31.5824C124.832 30.7137 124.132 30.0219 123.252 30.0219C122.372 30.0219 121.671 30.7137 121.671 31.5824C121.671 31.8881 121.769 32.1937 121.932 32.4351L120.025 34.3012C119.78 34.1403 119.487 34.0438 119.161 34.0438C118.297 34.0438 117.58 34.7356 117.58 35.6043C117.58 36.4731 118.281 37.1648 119.161 37.1648C119.471 37.1648 119.78 37.0683 120.025 36.9074L121.915 38.7736C121.752 39.0149 121.654 39.3045 121.654 39.6262C121.654 40.4789 122.355 41.1867 123.235 41.1867C124.115 41.1867 124.816 40.495 124.816 39.6262C124.816 38.7575 124.115 38.0818 123.252 38.0818Z" fill="#274690"/>
<path d="M131.4 30.038C131.09 30.038 130.78 30.1345 130.536 30.2954L128.646 28.4131C128.809 28.1718 128.906 27.8823 128.906 27.5605C128.906 26.7079 128.206 26 127.326 26C126.446 26 125.745 26.6918 125.745 27.5605C125.745 28.4292 126.446 29.121 127.326 29.121C127.635 29.121 127.945 29.0245 128.189 28.8636L130.08 30.7298C129.917 30.9711 129.819 31.2607 129.819 31.5824C129.819 31.9042 129.917 32.1937 130.08 32.4351L128.173 34.3012C127.929 34.1403 127.635 34.0438 127.309 34.0438C126.446 34.0438 125.729 34.7356 125.729 35.6043C125.729 36.4731 126.429 37.1648 127.309 37.1648C128.189 37.1648 128.89 36.4731 128.89 35.6043C128.89 35.2987 128.792 34.993 128.629 34.7517L130.52 32.8855C130.764 33.0464 131.058 33.1429 131.383 33.1429C132.247 33.1429 132.964 32.4511 132.964 31.5824C132.964 30.7137 132.263 30.038 131.4 30.038Z" fill="#274690"/>
</g>
<defs>
<clipPath id="clip0_41_472">
<rect width="160" height="64" fill="white"/>
</clipPath>
</defs>
</svg>
